#!OML:ASF F:\VICON\USERDATA\INSTALL\rory3\rory3.ASF
:FULLY-SPECIFIED
:DEGREES
76
root -0.8840403585425511 18.225010384640658 12.306427875885582 4.617675264304841 -2.9356769842698753 1.6463040202766919
lfemur 5.869582398883566 -2.5611725035004467 -27.83884120314864
ltibia 51.909970938272416
lfoot 31.084236618850063 -19.117313288951472
ltoes 1.7639204105456088
rfemur -36.24992836163167 0.7343835181170641 17.826578863156733
rtibia 3.1790505954041137
rfoot 6.4784048686621425 -13.202482942004977
rtoes -22.73660347213071
lowerback 1.0 -1.1055529540951072 -2.6481044093036585
upperback -1.0701772582299258 -1.5724949671300843 1.7917219105155078
thorax -7.2191228637492415 -0.8000243822950407 2.6075824095089546
lowerneck -17.95862368072827 -3.6469613131802228 -2.266143813713999
upperneck 13.882433453714794 -2.8169249490644357 1.8654405658715134
head 7.039591320471579 -1.655562089824509 0.5009771803531439
lclavicle -4.188927870659085e-14 3.851228570237774e-15
lhumerus -43.136169756424735 -10.362490456566409 91.06677361219884
lradius 123.06097976329744
lwrist 36.625234541793766
lhand -27.855043181294114 -9.774181114809888
lfingers nan
lthumb -1.0006826662949566 20.603302042266307
rclavicle -3.61846888951479e-14 5.8104770229894825e-15
rhumerus -66.49219009768109 -0.5916963079486255 -88.98296831818966
rradius 103.79368463419746
rwrist -12.483190595297017
rhand -19.460375091431157 1.0
rfingers nan
rthumb 6.83294558093484 11.792603099065763
77
root -0.850917490724493 18.190032266459596 13.183509102623805 4.385407539674943 -2.943293427087971 1.3669053773256883
lfemur 4.833182895850147 -2.3827590066340214 -27.59866885283233
ltibia 56.06088627714764
lfoot 31.647400831746893 -19.356332487962106
ltoes 3.289309795553036
rfemur -35.89831601859186 0.4742772500643113 18.27335135599473
rtibia 2.341796048802344
rfoot 6.809935905971084 -13.52551788530524
rtoes -23.171218310916167
lowerback 1.0 -1.0918859075956164 -2.2789111898066383
upperback -0.7447508888795273 -1.590806522562393 1.8405867400221203
thorax -7.022860371285641 -0.7058088736150764 2.3421258711558934
lowerneck -18.2265307828671 -3.7154476766617703 -2.3993332428998855
upperneck 13.869186751995464 -2.904778546113519 1.9394514537869243
head 7.082976835594348 -1.6787927362900912 0.531232145177285
lclavicle -6.574850618550187e-14 -9.285450640288978e-16
lhumerus -43.36447613911767 -10.062382698638496 91.14279361376815
lradius 120.54510521495138
lwrist 36.475116826987225
lhand -27.57911462052261 -10.221547681524573
lfingers nan
lthumb -0.7213658636299856 20.18894330061432
rclavicle -6.002640398954352e-14 1.2525942476676214e-15
rhumerus -65.34688409852043 -1.1993095268947602 -88.99342515814989
rradius 103.33377643276891
rwrist -12.040003113817551
rhand -19.5020124378355 1.0
rfingers nan
rthumb 6.780871518466496 11.65810625717255
78
root -0.8146440048044604 18.13535773621268 14.11496787260513 4.052269639253104 -2.966182250199528 1.058814387251457
lfemur 3.8431342834759192 -2.088168595382271 -27.230890632564144
ltibia 60.43225387483003
lfoot 31.517302423473588 -19.693241552509704
ltoes 2.719841529632431
rfemur -35.479970929509996 0.03981177502445199 18.975083820957394
rtibia 2.101028910444576
rfoot 6.776043589928506 -13.425168797821645
rtoes -21.532306615129663
lowerback 1.0 -1.0977221078735844 -1.8049742145601906
upperback -0.5142256592421302 -1.6230770474961131 1.8669945476952314
thorax -7.019415298227392 -0.5996764991635525 2.039448835354795
lowerneck -17.88229073754323 -3.7525020479798785 -2.4210910248612096
upperneck 13.857349803373335 -2.9909738874567635 1.9830463101596347
head 7.051608462197165 -1.714046614032469 0.5404891492760253
lclavicle 1.9702895224325596e-14 -2.0866708642706812e-14
lhumerus -43.99649257747542 -9.5858594964524 91.12982204620687
lradius 117.99944087372725
lwrist 36.38782187664924
lhand -27.979798710484207 -9.598736545984652
lfingers nan
lthumb -1.1023880584381625 20.84379543230598
rclavicle 2.4492798667041703e-14 -2.029000122904433e-14
rhumerus -64.41533464595828 -1.5785265239790807 -89.12800583775723
rradius 102.84345937671927
rwrist -11.471535407622856
rhand -19.36698626135279 1.0
rfingers nan
rthumb 6.896743866103944 11.699896446024207
79
root -0.7930810762284161 18.068879298076887 15.028022217097398 3.8202493728734987 -3.111391912075123 0.3668223385004895
lfemur 2.4081364145618984 -1.6803654303472921 -26.37695132027629
ltibia 64.97923085427887
lfoot 31.857924929741614 -19.20370047381492
ltoes 3.9375713637860734
rfemur -35.369340155154916 -0.4878864051616496 20.22051056277593
rtibia 2.5559925461641555
rfoot 6.979974038649374 -12.108696948682365
rtoes -22.167720823493077
lowerback 1.0 -1.0621091360122181 -1.188464012244164
upperback -0.32749148742227185 -1.5630352716878098 2.0332960951559276
thorax -7.163831429512793 -0.46954831150788945 1.7930823767303823
lowerneck -17.91356235127706 -3.856900651681223 -2.2709364028380707
upperneck 13.653116056765004 -3.171054883403249 1.9271076430802858
head 6.993538538637916 -1.798059318457738 0.4993476428807836
lclavicle -4.0004879028024694e-15 2.5264929594521827e-16
lhumerus -44.52354685540432 -9.054078366153371 91.01742320006639
lradius 115.4116174011584
lwrist 36.087409840692644
lhand -27.95462584202521 -7.914490005582369
lfingers nan
lthumb -1.0725096091894075 22.562768450263867
rclavicle 8.432326830808853e-16 1.0562892060445587e-15
rhumerus -63.15093727618802 -1.754696087428437 -89.2758163761658
rradius 102.26095398500786
rwrist -11.111265492991617
rhand -19.551405878768954 1.0
rfingers nan
rthumb 6.704707530992861 12.175455149767176
80
root -0.7867704890983123 17.995994770575557 15.934273140574515 3.641242866593388 -3.379596928798224 -0.6422802421113536
lfemur 0.5581498280667958 -1.0462750456036947 -25.013769541645004
ltibia 69.66256637982532
lfoot 32.646417308439744 -18.555959777907535
ltoes 5.616757747147435
rfemur -35.47012329421578 -1.005897526482714 21.90641914055395
rtibia 3.62292755905834
rfoot 7.253557732387571 -9.903036507526624
rtoes -22.9456279930255
lowerback 1.0 -0.9741192913233283 -0.44602686450755147
upperback -0.3293722498936995 -1.395155999539322 2.3685811313183303
thorax -7.613617287808644 -0.3168754410996021 1.5930822595745724
lowerneck -17.534271110498057 -3.946385957638077 -2.334795948236155
upperneck 13.560076136351771 -3.2981886748904374 1.9326348458344702
head 6.934304383042971 -1.866439002478125 0.4973897658024829
lclavicle -1.633795556910695e-14 -9.924982759845316e-15
lhumerus -45.22980516584548 -8.463976239718251 91.12947619106133
lradius 112.82753216645818
lwrist 35.59693448691857
lhand -27.659134982028426 -8.769857581044542
lfingers nan
lthumb -0.759659751717757 21.760842727403997
rclavicle -1.1412228886834885e-14 -8.997759802978152e-15
rhumerus -61.92861037720818 -1.6825929837921354 -89.38805759244268
rradius 101.73857081081896
rwrist -11.497534572728663
rhand -19.806796846365657 1.0
rfingers nan
rthumb 6.444504242103162 12.264874699263558
81
root -0.7798951637030938 17.915831497064925 16.773227702517723 3.361515776633781 -3.740035531724835 -1.2550025930861601
lfemur -1.0443535683796128 -0.14866724496222083 -23.9323545000308
ltibia 74.31374662138742
lfoot 32.167657547131995 -18.17032896871042
ltoes 3.072960203809206
rfemur -35.50867950448541 -1.572301588814446 23.291429870868605
rtibia 5.378175667909474
rfoot 6.601690634269708 -7.1019333269191565
rtoes -12.138705852266785
lowerback 1.0 -0.8611128293852608 0.038114192108685496
upperback -0.3367911430458247 -1.2185293111656517 2.531163443147187
thorax -8.070194019006795 -0.18364120023579578 1.4214790402909694
lowerneck -17.005975158307756 -3.9716546176558456 -2.4033220817026857
upperneck 13.718987311698365 -3.3426011451744966 1.964331214115073
head 6.940462809551659 -1.900095394070848 0.5064933498887998
lclavicle 3.200481665378586e-14 -2.319514833597213e-14
lhumerus -46.13524453394367 -7.803185664030438 91.17395963573126
lradius 110.40864645528674
lwrist 35.28123719768103
lhand -28.253680263561595 -10.513095540648207
lfingers nan
lthumb -1.3195445173525373 20.027956219514156
rclavicle 3.732371178487525e-14 -2.2031746311869217e-14
rhumerus -60.666791635651535 -1.528886968462798 -89.64341292576384
rradius 101.1186503447322
rwrist -12.319633397704681
rhand -19.163236765256304 1.0
rfingers nan
rthumb 7.049071926038838 12.35594764317959
